<mxfile host="app.diagrams.net" modified="2023-09-12T16:42:08.233Z" agent="Mozilla/5.0 (Windows NT 10.0; Win64; x64) AppleWebKit/537.36 (KHTML, like Gecko) Chrome/116.0.0.0 Safari/537.36" etag="hSwJcyWWeoc4GHEOSB1E" version="21.7.4" type="device">
  <diagram name="Page-1" id="-NOZH91CD-aCjy_UhlmU">
    <mxGraphModel dx="910" dy="477" grid="1" gridSize="10" guides="1" tooltips="1" connect="1" arrows="1" fold="1" page="1" pageScale="1" pageWidth="850" pageHeight="1100" math="0" shadow="0">
      <root>
        <mxCell id="0" />
        <mxCell id="1" parent="0" />
        <mxCell id="anh-WbQr9P2zydiLgThJ-6" style="edgeStyle=orthogonalEdgeStyle;rounded=0;orthogonalLoop=1;jettySize=auto;html=1;" edge="1" parent="1" source="anh-WbQr9P2zydiLgThJ-2" target="anh-WbQr9P2zydiLgThJ-7">
          <mxGeometry relative="1" as="geometry">
            <mxPoint x="370" y="320" as="targetPoint" />
          </mxGeometry>
        </mxCell>
        <mxCell id="anh-WbQr9P2zydiLgThJ-2" value="" style="ellipse;whiteSpace=wrap;html=1;aspect=fixed;" vertex="1" parent="1">
          <mxGeometry x="340" y="190" width="60" height="60" as="geometry" />
        </mxCell>
        <mxCell id="anh-WbQr9P2zydiLgThJ-4" value="Login Activity Diagram" style="text;html=1;strokeColor=none;fillColor=none;align=center;verticalAlign=middle;whiteSpace=wrap;rounded=0;" vertex="1" parent="1">
          <mxGeometry x="220" y="170" width="60" height="30" as="geometry" />
        </mxCell>
        <mxCell id="anh-WbQr9P2zydiLgThJ-18" style="edgeStyle=orthogonalEdgeStyle;rounded=0;orthogonalLoop=1;jettySize=auto;html=1;" edge="1" parent="1" source="anh-WbQr9P2zydiLgThJ-7" target="anh-WbQr9P2zydiLgThJ-16">
          <mxGeometry relative="1" as="geometry" />
        </mxCell>
        <mxCell id="anh-WbQr9P2zydiLgThJ-7" value="User and Pass" style="ellipse;whiteSpace=wrap;html=1;" vertex="1" parent="1">
          <mxGeometry x="310" y="280" width="120" height="80" as="geometry" />
        </mxCell>
        <mxCell id="anh-WbQr9P2zydiLgThJ-23" style="edgeStyle=orthogonalEdgeStyle;rounded=0;orthogonalLoop=1;jettySize=auto;html=1;" edge="1" parent="1" source="anh-WbQr9P2zydiLgThJ-13">
          <mxGeometry relative="1" as="geometry">
            <mxPoint x="280" y="530" as="targetPoint" />
          </mxGeometry>
        </mxCell>
        <mxCell id="anh-WbQr9P2zydiLgThJ-13" value="Successful Login" style="ellipse;whiteSpace=wrap;html=1;" vertex="1" parent="1">
          <mxGeometry x="220" y="430" width="120" height="70" as="geometry" />
        </mxCell>
        <mxCell id="anh-WbQr9P2zydiLgThJ-21" style="edgeStyle=orthogonalEdgeStyle;rounded=0;orthogonalLoop=1;jettySize=auto;html=1;entryX=1;entryY=0.5;entryDx=0;entryDy=0;" edge="1" parent="1" source="anh-WbQr9P2zydiLgThJ-14" target="anh-WbQr9P2zydiLgThJ-7">
          <mxGeometry relative="1" as="geometry" />
        </mxCell>
        <mxCell id="anh-WbQr9P2zydiLgThJ-14" value="Bad Login/ Error Message" style="ellipse;whiteSpace=wrap;html=1;" vertex="1" parent="1">
          <mxGeometry x="400" y="430" width="120" height="80" as="geometry" />
        </mxCell>
        <mxCell id="anh-WbQr9P2zydiLgThJ-19" style="edgeStyle=orthogonalEdgeStyle;rounded=0;orthogonalLoop=1;jettySize=auto;html=1;entryX=0.5;entryY=0;entryDx=0;entryDy=0;" edge="1" parent="1" source="anh-WbQr9P2zydiLgThJ-16" target="anh-WbQr9P2zydiLgThJ-14">
          <mxGeometry relative="1" as="geometry" />
        </mxCell>
        <mxCell id="anh-WbQr9P2zydiLgThJ-20" style="edgeStyle=orthogonalEdgeStyle;rounded=0;orthogonalLoop=1;jettySize=auto;html=1;entryX=0.5;entryY=0;entryDx=0;entryDy=0;" edge="1" parent="1" source="anh-WbQr9P2zydiLgThJ-16" target="anh-WbQr9P2zydiLgThJ-13">
          <mxGeometry relative="1" as="geometry" />
        </mxCell>
        <mxCell id="anh-WbQr9P2zydiLgThJ-16" value="" style="rhombus;whiteSpace=wrap;html=1;" vertex="1" parent="1">
          <mxGeometry x="350" y="390" width="40" height="40" as="geometry" />
        </mxCell>
        <mxCell id="anh-WbQr9P2zydiLgThJ-24" value="" style="ellipse;whiteSpace=wrap;html=1;aspect=fixed;" vertex="1" parent="1">
          <mxGeometry x="250" y="530" width="60" height="60" as="geometry" />
        </mxCell>
      </root>
    </mxGraphModel>
  </diagram>
</mxfile>
